<?xml version="1.0" encoding="UTF-8"?>
<svg width="1088px" height="480px" viewBox="0 0 1088 480" version="1.1" xmlns="http://www.w3.org/2000/svg" xmlns:xlink="http://www.w3.org/1999/xlink">
    <!-- Generator: Sketch 63.1 (92452) - https://sketch.com -->
    <title>img_operacion_desconocida</title>
    <desc>Created with Sketch.</desc>
    <defs>
        <linearGradient x1="6.33619369%" y1="12.2739943%" x2="47.6160294%" y2="80.9163265%" id="linearGradient-1">
            <stop stop-color="#1A2542" stop-opacity="0.5" offset="0%"></stop>
            <stop stop-color="#1A2542" stop-opacity="0" offset="100%"></stop>
        </linearGradient>
    </defs>
    <g id="img_operacion_desconocida" stroke="none" stroke-width="1" fill="none" fill-rule="evenodd">
        <g id="Alert" transform="translate(366.000000, 0.000000)" fill-rule="nonzero">
            <path d="M123.214028,479 L526.785972,479 C534.702425,479 542.021531,474.799728 545.996904,467.969211 C549.972277,461.138693 550.002744,452.713179 546.076874,445.854219 L344.309054,93.1807008 C340.357704,86.2677523 332.994231,82 325.018153,82 C317.042076,82 309.678603,86.2677523 305.727252,93.1807008 L103.923126,445.854219 C99.9972556,452.713179 100.027723,461.138693 104.003096,467.969211 C107.978469,474.799728 115.297575,479 123.214028,479 Z" id="Path" fill="url(#linearGradient-1)"></path>
            <path d="M22.189382,397 L425.786424,397 C433.70396,397 441.022011,392.792335 444.996845,385.961511 C448.971679,379.130688 449.002795,370.706034 445.078525,363.846178 L243.286055,11.1793407 C239.334459,4.26723318 231.970528,0 223.993955,0 C216.017381,0 208.65345,4.26723318 204.701854,11.1793407 L2.92148715,363.846178 C-1.00065094,370.702291 -0.971859026,379.121825 2.99707832,385.951084 C6.96601567,392.780342 14.2761694,396.988763 22.189382,397 L22.189382,397 Z" id="Path" fill="#DA3951"></path>
            <path d="M224.493957,284 C219.853786,284 215.40384,282.152786 212.123877,278.86506 C208.843914,275.577335 207.002861,271.118663 207.006068,266.470724 L207.006068,119.989895 C206.838898,113.619637 210.136178,107.660288 215.617588,104.425838 C221.098998,101.191387 227.901002,101.191387 233.382412,104.425838 C238.863822,107.660288 242.161102,113.619637 241.993932,119.989895 L241.993932,266.470724 C241.993932,276.151876 234.158926,284 224.493957,284 Z" id="Path" fill="#FFFFFF"></path>
            <circle id="Oval" fill="#FFFFFF" cx="224.5" cy="330.5" r="20.5"></circle>
        </g>
        <rect id="Rectangle" x="0" y="0" width="1088" height="479"></rect>
    </g>
</svg>