<?xml version="1.0" encoding="UTF-8"?>
<svg width="600px" height="600px" viewBox="0 0 600 600" version="1.1" xmlns="http://www.w3.org/2000/svg" xmlns:xlink="http://www.w3.org/1999/xlink">
    <title>img_credit_card_euro</title>
    <defs>
        <linearGradient x1="21.3623012%" y1="17.5522252%" x2="71.2673763%" y2="76.389663%" id="linearGradient-1">
            <stop stop-color="#192647" stop-opacity="0.5" offset="0%"></stop>
            <stop stop-color="#192647" stop-opacity="0" offset="100%"></stop>
        </linearGradient>
        <linearGradient x1="100%" y1="50%" x2="1.19098682e-14%" y2="50%" id="linearGradient-2">
            <stop stop-color="#043263" offset="0%"></stop>
            <stop stop-color="#043263" stop-opacity="0" offset="100%"></stop>
        </linearGradient>
        <linearGradient x1="26.5774191%" y1="29.672924%" x2="60.9326559%" y2="53.066223%" id="linearGradient-3">
            <stop stop-color="#FADE8E" offset="0%"></stop>
            <stop stop-color="#FADE8E" stop-opacity="0.4" offset="100%"></stop>
        </linearGradient>
    </defs>
    <g id="Page-1" stroke="none" stroke-width="1" fill="none" fill-rule="evenodd">
        <g id="img_credit_card_euro">
            <g id="Cuadrados_Blancos">
                <rect id="Rectangle" x="0" y="0" width="600" height="600"></rect>
            </g>
            <g id="Capa_25" transform="translate(120.000000, 191.000000)" fill-rule="nonzero">
                <path d="M398.33,165.27 L398.33,61.83 C398.33,49.1274508 388.032549,38.83 375.33,38.83 L61.33,38.83 C48.6274508,38.83 38.33,49.1274508 38.33,61.83 L38.33,232.83 C38.33,245.532549 48.6274508,255.83 61.33,255.83 L305.13,255.83 C321.138487,273.23338 345.335297,280.570224 368.313325,274.988154 C391.291352,269.406085 409.425307,251.785796 415.665168,228.977608 C421.905028,206.169421 415.266318,181.77183 398.33,165.27 L398.33,165.27 Z" id="Path" fill="url(#linearGradient-1)"></path>
                <rect id="Rectangle" fill="#1464A5" x="0" y="0.5" width="360" height="217" rx="23"></rect>
                <path d="M337,217.5 C349.702549,217.5 360,207.202549 360,194.5 L360,23.5 C360,10.7974508 349.702549,0.5 337,0.5 L236.77,0.5 L121.36,217.5 L337,217.5 Z" id="Path" fill="url(#linearGradient-2)"></path>
                <rect id="Rectangle" fill="#043263" opacity="0.6" x="0" y="31.37" width="360" height="35.28"></rect>
                <rect id="Rectangle" fill="#FFFFFF" x="52.94" y="134.58" width="254.12" height="31.76" rx="3"></rect>
                <path d="M379.150019,173 C379.170227,199.294587 363.346316,223.011286 339.059088,233.087807 C314.771861,243.164328 286.806005,237.615552 268.205766,219.029622 C249.605528,200.443691 244.035233,172.482114 254.093062,148.187139 C264.15089,123.892165 287.855406,108.05 314.15,108.05 L314.15,108.05 C350.028992,108.05 379.122401,137.121019 379.150019,173" id="Path" fill="#F8CD51"></path>
                <path d="M344.74,115.71 C313.071992,98.8653151 273.744685,110.881992 256.9,142.55 C240.055315,174.218008 252.071992,213.545315 283.74,230.39 L344.74,115.71 Z" id="Path" fill="url(#linearGradient-3)"></path>
                <path d="M291.42,170.61 L282.57,170.61 L282.57,164 L292.22,164 C294.9,149 304.22,142.12 315.09,142.12 C326.53,142.12 332.6,147.98 335.58,155.35 L327.13,160.12 C325.04,153.85 321.36,150.87 315.13,150.87 C308.47,150.87 303.7,155.15 302.01,164 L317.01,164 L317.01,170.66 L301.27,170.66 L301.27,172.75 C301.27,173.95 301.27,175.14 301.37,176.23 L317.08,176.23 L317.08,183 L302.16,183 C303.86,191.25 308.03,195.53 315.29,195.53 C321.56,195.53 325.29,192.74 327.63,185.78 L335.88,190.78 C332.5,198.46 325.54,204 315.19,204 C304,204 295.1,197.37 292.32,183 L282.57,183 L282.57,176.23 L291.52,176.23 C291.42,175.14 291.42,174.04 291.42,172.95 L291.42,170.66 L291.42,170.61 Z" id="Path" fill="#FEF5DC"></path>
            </g>
        </g>
    </g>
</svg>