<svg width="80" height="24" viewBox="0 0 80 24" fill="none" xmlns="http://www.w3.org/2000/svg">
<path d="M57.63 3.25257L50.7496 16.3568C50.6029 16.6371 50.1762 16.6371 50.0295 16.3568L43.1491 3.25257C43.0825 3.11913 42.9491 3.03906 42.8025 3.03906H39.4689C39.2423 3.03906 39.0956 3.27926 39.2023 3.47943L50.0429 23.7897C50.1895 24.0699 50.5896 24.0699 50.7496 23.7897L61.5902 3.47943C61.6969 3.27926 61.5502 3.03906 61.3235 3.03906H57.99C57.83 3.03906 57.6966 3.11913 57.63 3.25257Z" fill="#00288F"/>
<path d="M61.5367 20.7473L68.4171 7.64303C68.5638 7.3628 68.9905 7.3628 69.1372 7.64303L76.0176 20.7473C76.0842 20.8807 76.2176 20.9608 76.3642 20.9608H79.6978C79.9244 20.9608 80.0711 20.7206 79.9645 20.5204L69.1238 0.210175C68.9772 -0.0700584 68.5771 -0.0700584 68.4171 0.210175L57.5765 20.5204C57.4699 20.7206 57.6165 20.9608 57.8432 20.9608H61.1767C61.3234 20.9475 61.4701 20.8674 61.5367 20.7473Z" fill="#00288F"/>
<path d="M14.5075 12.7006C15.9476 11.98 16.8409 10.4187 16.8409 8.51045C16.8409 5.24106 14.2941 3.02588 10.7073 3.02588H0.400023C0.173343 3.02588 0 3.19936 0 3.42621V23.5897C0 23.8165 0.173343 23.99 0.400023 23.99H10.2672C15.2009 23.99 17.801 21.8682 17.801 17.7048C17.801 13.6481 14.5075 12.7006 14.5075 12.7006ZM3.86688 6.06841H9.98723C12.2407 6.06841 13.3874 7.02921 13.3874 8.81737C13.3874 10.6055 12.2407 11.5663 9.98723 11.5663H3.86688C3.65354 11.5663 3.46686 11.3929 3.46686 11.166V6.46875C3.46686 6.24189 3.6402 6.06841 3.86688 6.06841ZM10.0672 20.9475H3.86688C3.6402 20.9475 3.46686 20.774 3.46686 20.5471V14.9825C3.46686 14.769 3.6402 14.5822 3.86688 14.5822H10.0672C13.0274 14.5822 14.3475 15.4229 14.3475 17.7582C14.3341 20.1201 13.0541 20.9475 10.0672 20.9475Z" fill="#00288F"/>
<path d="M35.6688 12.7006C37.1088 11.98 38.0022 10.4187 38.0022 8.51045C38.0022 5.24106 35.4554 3.02588 31.8686 3.02588H21.548C21.3213 3.02588 21.1479 3.19936 21.1479 3.42621V23.5897C21.1479 23.8165 21.3213 23.99 21.548 23.99H31.4152C36.3488 23.99 38.949 21.8682 38.949 17.7048C38.9623 13.6481 35.6688 12.7006 35.6688 12.7006ZM25.0282 6.06841H31.1485C33.402 6.06841 34.5487 7.02921 34.5487 8.81737C34.5487 10.6055 33.402 11.5663 31.1485 11.5663H25.0282C24.8015 11.5663 24.6281 11.3929 24.6281 11.166V6.46875C24.6281 6.24189 24.8015 6.06841 25.0282 6.06841ZM31.2152 20.9475H25.0148C24.8015 20.9475 24.6148 20.774 24.6148 20.5471V14.9825C24.6148 14.769 24.7882 14.5822 25.0148 14.5822H31.2152C34.1753 14.5822 35.4954 15.4229 35.4954 17.7582C35.4954 20.1201 34.202 20.9475 31.2152 20.9475Z" fill="#00288F"/>
</svg>
